<?xml version="1.0" standalone="no"?>
<!DOCTYPE svg PUBLIC "-//W3C//DTD SVG 20010904//EN"
 "http://www.w3.org/TR/2001/REC-SVG-20010904/DTD/svg10.dtd">
<svg version="1.0" xmlns="http://www.w3.org/2000/svg"
 width="500.000000pt" height="500.000000pt" viewBox="0 0 500.000000 500.000000"
 preserveAspectRatio="xMidYMid meet">

<g transform="translate(0.000000,500.000000) scale(0.100000,-0.100000)"
fill="#ffffff" stroke="none">
<path d="M1110 2985 c0 -33 -2 -35 -35 -35 -34 0 -35 -1 -35 -40 l0 -40 -40 0
c-39 0 -40 -1 -40 -35 0 -34 1 -35 40 -35 l40 0 0 -40 c0 -39 1 -40 35 -40 33
0 35 -2 35 -35 0 -34 1 -35 40 -35 39 0 40 1 40 35 0 34 -1 35 -40 35 l-40 0
0 40 c0 39 -1 40 -35 40 -33 0 -35 2 -35 35 0 33 2 35 35 35 34 0 35 1 35 40
l0 40 40 0 c39 0 40 1 40 35 0 34 -1 35 -40 35 -39 0 -40 -1 -40 -35z"/>
<path d="M1270 2985 l0 -35 70 0 70 0 0 -150 0 -150 35 0 35 0 0 150 0 150 75
0 75 0 0 35 0 35 -180 0 -180 0 0 -35z"/>
<path d="M1790 2985 l0 -35 145 0 145 0 0 35 0 35 -145 0 -145 0 0 -35z"/>
<path d="M2240 2985 l0 -35 110 0 110 0 0 -110 0 -110 35 0 35 0 0 110 0 110
-35 0 c-33 0 -35 2 -35 35 l0 35 -110 0 -110 0 0 -35z"/>
<path d="M2610 2835 l0 -185 145 0 145 0 0 35 0 35 -110 0 -110 0 0 115 0 115
110 0 110 0 0 35 0 35 -145 0 -145 0 0 -185z"/>
<path d="M3060 2835 l0 -185 185 0 185 0 0 35 0 35 -150 0 -150 0 0 40 0 40
110 0 110 0 0 35 0 35 -110 0 -110 0 0 40 0 40 150 0 150 0 0 35 0 35 -185 0
-185 0 0 -185z"/>
<path d="M3800 2985 c0 -33 -2 -35 -35 -35 -34 0 -35 -1 -35 -40 l0 -40 -40 0
c-39 0 -40 -1 -40 -35 0 -33 -2 -35 -35 -35 -33 0 -35 -2 -35 -35 0 -33 2 -35
35 -35 33 0 35 2 35 35 0 34 1 35 40 35 39 0 40 1 40 35 0 33 2 35 35 35 34 0
35 1 35 40 0 39 1 40 35 40 33 0 35 2 35 35 0 33 -2 35 -35 35 -33 0 -35 -2
-35 -35z"/>
<path d="M3950 2985 c0 -33 2 -35 35 -35 33 0 35 2 35 35 0 33 -2 35 -35 35
-33 0 -35 -2 -35 -35z"/>
<path d="M1710 2840 l0 -110 35 0 35 0 0 110 0 110 -35 0 -35 0 0 -110z"/>
<path d="M2160 2840 l0 -110 35 0 35 0 0 110 0 110 -35 0 -35 0 0 -110z"/>
<path d="M2910 2840 l0 -110 35 0 35 0 0 110 0 110 -35 0 -35 0 0 -110z"/>
<path d="M4030 2910 c0 -39 1 -40 35 -40 33 0 35 -2 35 -35 0 -33 -2 -35 -35
-35 -33 0 -35 -2 -35 -35 0 -33 2 -35 35 -35 33 0 35 2 35 35 0 33 2 35 35 35
33 0 35 2 35 35 0 33 -2 35 -35 35 -34 0 -35 1 -35 40 0 39 -1 40 -35 40 -34
0 -35 -1 -35 -40z"/>
<path d="M1790 2685 l0 -35 145 0 145 0 0 35 0 35 -145 0 -145 0 0 -35z"/>
<path d="M2240 2685 l0 -35 110 0 110 0 0 35 0 35 -110 0 -110 0 0 -35z"/>
<path d="M3500 2685 c0 -34 1 -35 40 -35 39 0 40 1 40 35 0 34 -1 35 -40 35
-39 0 -40 -1 -40 -35z"/>
<path d="M3950 2685 c0 -33 2 -35 35 -35 33 0 35 2 35 35 0 33 -2 35 -35 35
-33 0 -35 -2 -35 -35z"/>
</g>
</svg>
